<?xml version="1.0" standalone="no"?>
<!DOCTYPE svg PUBLIC "-//W3C//DTD SVG 20010904//EN"
 "http://www.w3.org/TR/2001/REC-SVG-20010904/DTD/svg10.dtd">
<svg version="1.0" xmlns="http://www.w3.org/2000/svg"
 width="400.000000pt" height="400.000000pt" viewBox="0 0 400.000000 400.000000"
 preserveAspectRatio="xMidYMid meet">
<metadata>
Created by potrace 1.11, written by Peter Selinger 2001-2013
</metadata>
<g transform="translate(0.000000,400.000000) scale(0.100000,-0.100000)"
fill="#000000" stroke="none">
<path d="M1796 3989 c-273 -29 -583 -131 -813 -269 -554 -333 -907 -891 -973
-1539 -40 -399 63 -857 268 -1193 133 -220 329 -441 509 -576 301 -227 649
-362 1032 -401 400 -41 848 59 1198 269 555 333 906 888 972 1539 68 664 -236
1358 -777 1769 -399 304 -924 453 -1416 401z m444 -130 c115 -13 326 -66 435
-109 453 -180 797 -498 1011 -934 144 -294 203 -600 183 -944 -47 -788 -615
-1480 -1381 -1681 -150 -40 -217 -51 -364 -60 -544 -36 -1064 160 -1449 544
-322 323 -517 752 -544 1197 -33 559 157 1064 545 1452 164 164 310 267 525
371 320 153 655 206 1039 164z"/>
<path d="M1795 3775 c-143 -17 -255 -42 -370 -82 -629 -218 -1090 -764 -1192
-1414 -25 -162 -23 -433 5 -590 90 -498 392 -943 824 -1211 315 -195 712 -292
1075 -260 514 45 944 275 1263 673 376 469 487 1103 294 1678 -154 461 -495
842 -939 1052 -293 138 -641 194 -960 154z m354 -426 l133 -12 -6 -86 c-4 -47
-9 -99 -12 -116 -5 -30 -5 -30 84 -57 135 -42 270 -140 358 -259 72 -99 137
-262 165 -419 15 -80 20 -552 7 -566 -4 -4 -85 0 -180 10 -95 9 -357 34 -581
56 -225 22 -426 40 -446 40 l-38 0 -6 -72 c-8 -87 6 -232 29 -308 55 -187 176
-280 365 -280 36 0 88 7 116 15 66 20 144 89 174 155 12 28 27 50 32 50 12 0
426 -79 449 -86 16 -5 16 -9 -6 -52 -56 -110 -180 -257 -262 -314 -104 -70
-245 -121 -381 -138 -48 -6 -90 -13 -92 -16 -3 -2 -10 -61 -17 -130 -7 -69
-14 -127 -16 -130 -4 -4 -324 24 -343 31 -8 2 -7 42 2 126 17 178 19 164 -29
179 -215 64 -400 256 -484 502 -109 322 -71 866 83 1173 56 111 102 175 183
255 113 112 233 175 391 208 90 19 84 10 95 152 3 52 9 99 11 103 3 5 24 6 47
3 22 -3 101 -11 175 -17z"/>
<path d="M2000 2770 c-111 -19 -196 -87 -254 -203 -39 -79 -85 -253 -70 -266
5 -5 162 -22 349 -40 187 -17 352 -33 368 -36 l27 -4 0 87 c-1 250 -112 428
-286 457 -75 12 -89 13 -134 5z"/>
</g>
</svg>
