<?xml version="1.0" standalone="no"?>
<!DOCTYPE svg PUBLIC "-//W3C//DTD SVG 20010904//EN"
 "http://www.w3.org/TR/2001/REC-SVG-20010904/DTD/svg10.dtd">
<svg version="1.0" xmlns="http://www.w3.org/2000/svg"
 width="1000.000000pt" height="1000.000000pt" viewBox="0 0 1000.000000 1000.000000"
 preserveAspectRatio="xMidYMid meet">
<metadata>
Created by potrace 1.11, written by Peter Selinger 2001-2013
</metadata>
<g transform="translate(0.000000,1000.000000) scale(0.100000,-0.100000)"
fill="#000000" stroke="none">
<path d="M4738 9995 c-2 -1 -50 -5 -108 -9 -58 -4 -118 -9 -135 -11 -16 -3
-52 -7 -80 -10 -48 -4 -338 -49 -380 -59 -11 -2 -53 -12 -93 -20 -224 -48
-609 -163 -727 -216 -11 -5 -58 -25 -105 -44 -218 -87 -413 -184 -660 -327
-140 -80 -551 -369 -635 -445 -12 -11 -50 -44 -85 -74 -170 -143 -393 -369
-554 -560 -374 -444 -673 -962 -871 -1505 -26 -71 -48 -134 -50 -140 -1 -5 -5
-17 -8 -25 -24 -64 -110 -383 -136 -510 -22 -103 -26 -124 -41 -215 -21 -132
-27 -171 -35 -250 -3 -27 -8 -63 -10 -80 -26 -177 -26 -833 -1 -995 2 -14 7
-52 11 -85 8 -76 13 -109 30 -215 29 -175 42 -237 87 -415 123 -490 326 -974
587 -1400 82 -132 269 -401 342 -490 227 -275 374 -430 629 -660 145 -131 458
-363 635 -472 280 -172 585 -324 861 -429 225 -86 544 -180 739 -220 11 -2 43
-8 70 -14 101 -21 242 -45 320 -55 28 -3 66 -8 85 -10 19 -2 67 -7 105 -11 39
-3 81 -8 95 -10 14 -3 156 -6 315 -8 346 -4 462 3 805 50 20 2 47 6 60 9 13 3
42 7 65 10 94 14 382 81 515 120 1107 326 2039 987 2697 1913 210 295 420 676
542 982 29 74 59 149 66 165 27 64 116 345 150 475 9 35 75 326 80 354 16 96
45 289 50 341 4 33 8 71 10 84 27 160 26 760 0 999 -3 23 -7 59 -9 80 -3 22
-7 54 -10 73 -5 31 -8 54 -21 144 -3 17 -7 41 -10 55 -3 14 -8 41 -11 60 -3
19 -12 63 -19 96 -8 34 -16 73 -19 85 -20 108 -106 405 -166 574 -131 368
-305 717 -535 1074 -72 112 -276 388 -327 443 -7 7 -38 43 -68 78 -148 176
-367 391 -575 566 -654 549 -1446 921 -2300 1080 -22 4 -44 8 -50 9 -13 3 -66
12 -130 21 -27 3 -59 8 -69 10 -11 2 -67 8 -125 14 -58 6 -124 13 -146 16 -42
6 -641 14 -647 9z"/>
</g>
</svg>
